<?xml version="1.0" encoding="utf-8"?>
<!-- Generator: Adobe Illustrator 22.0.0, SVG Export Plug-In . SVG Version: 6.00 Build 0)  -->
<svg version="1.1" id="Layer_1" xmlns="http://www.w3.org/2000/svg" xmlns:xlink="http://www.w3.org/1999/xlink" x="0px" y="0px"
	 viewBox="0 0 100 100" style="enable-background:new 0 0 100 100;" xml:space="preserve">
<style type="text/css">
	.st0{fill:#1C100B;}
	.st1{fill:#D25400;}
	.st2{fill:#FFD997;}
	.st3{font-family:'AlfaSlabOne-Regular';}
	.st4{font-size:12.8814px;}
	.st5{font-size:20.8087px;}
</style>
<g>
	<path class="st0" d="M30.7,35.3c-1.8-8.1-8-17.2-11.2-16.1c-3,1.1-4.7,13.2-2.9,21.3c1.2,5.3,3.2,7.7,5.5,8.3
		c1.9,0.5,3.4,2.4,3.7,4.9L31.6,94c0.2,1.6,0.9,2.9,2,3.7c1,0.8,2.3,1.1,3.5,0.6c1.2-0.4,2.1-1.5,2.7-2.9c0.5-1.4,0.6-3.1,0.1-4.5
		L28.2,52.9c-0.7-2.3-0.3-5,1.2-6.7C31.1,44,31.8,40.6,30.7,35.3z"/>
	<path class="st0" d="M56.3,17.6c-0.6,0-1,0.6-1,1.4v16.8c0,0.8-0.5,1.4-1.1,1.4c-0.6,0-1.1-0.6-1.1-1.4V19c0-0.8-0.5-1.4-1-1.4h0
		c-0.6,0-1,0.6-1,1.4v16.8c0,0.8-0.5,1.4-1.1,1.4s-1.1-0.6-1.1-1.4V19c0-0.8-0.5-1.4-1-1.4h0c-0.6,0-1,0.6-1,1.4v16.8
		c0,0.8-0.5,1.4-1.1,1.4c-0.6,0-1.1-0.6-1.1-1.4V19c0-0.8-0.5-1.4-1-1.4c-0.6,0-1,0.6-1,1.3c0,4.3,0,17.6,0,18.2
		c0,5.5,1.4,8.6,3.6,10c1.7,1.1,2.7,3.5,2.5,6l-3.1,40.8c-0.1,1.6,0.3,3.1,1.1,4.3c0.8,1.2,2,1.8,3.2,1.8c1.2,0,2.4-0.7,3.2-1.8
		c0.8-1.2,1.2-2.7,1.1-4.3l-3.1-40.8c-0.2-2.5,0.8-4.9,2.5-6c2.1-1.4,3.6-4.4,3.6-10c0-0.6,0-13.9,0-18.2
		C57.3,18.2,56.9,17.6,56.3,17.6z"/>
	<path class="st0" d="M78.6,20c0.1-0.7-0.2-1.5-0.8-1.6c-0.4-0.1-0.9,0.1-1.1,0.7l-7.7,17.4c-2.4,5.4-2.5,12.1-0.4,17.7
		c0.6,1.4,0.7,3.1,0.3,4.7l-8.3,33.3c-0.4,1.5-0.2,3.1,0.4,4.5c0.6,1.4,1.6,2.3,2.8,2.7c1.2,0.3,2.4,0,3.4-0.9
		c1-0.9,1.6-2.3,1.8-3.9l3.4-37.2L78.6,20z"/>
	<g>
		<rect x="-2.6" y="62" class="st1" width="105.1" height="24.1"/>
		<g>
			<path class="st0" d="M100,64.6v19H0v-19H100 M105.1,59.5H100H0h-5.1v5.1v19v5.1H0h100h5.1v-5.1v-19V59.5L105.1,59.5z"/>
		</g>
	</g>
	<g>
		<polygon class="st1" points="27.2,74.1 50,55.1 72.8,74.1 50,93 		"/>
		<g>
			<path class="st0" d="M50,58.4l18.8,15.7L50,89.7L31.2,74.1L50,58.4 M50,51.8l-3.3,2.7L27.9,70.1l-4.7,3.9l4.7,3.9l18.8,15.7
				l3.3,2.7l3.3-2.7L72.1,78l4.7-3.9l-4.7-3.9L53.3,54.5L50,51.8L50,51.8z"/>
		</g>
	</g>
	<polygon class="st1" points="38.5,51.1 39.3,53.7 41.3,54.8 39.3,55.8 38.5,58.4 37.7,55.8 35.7,54.8 37.7,53.7 	"/>
	<polygon class="st1" points="33.9,46.2 34.4,48 35.7,48.7 34.4,49.4 33.9,51.1 33.3,49.4 32,48.7 33.3,48 	"/>
	<polygon class="st1" points="41.3,45.1 41.8,46.8 43.2,47.5 41.8,48.2 41.3,49.9 40.8,48.2 39.5,47.5 40.8,46.8 	"/>
	<polygon class="st1" points="60.7,51.1 60,53.7 57.9,54.8 60,55.8 60.7,58.4 61.5,55.8 63.5,54.8 61.5,53.7 	"/>
	<polygon class="st1" points="64.6,46.2 64.1,48 62.7,48.7 64.1,49.4 64.6,51.1 65.1,49.4 66.5,48.7 65.1,48 	"/>
	<polygon class="st1" points="57.9,45.1 57.4,46.8 56.1,47.5 57.4,48.2 57.9,49.9 58.5,48.2 59.8,47.5 58.5,46.8 	"/>
	<g>
		<text transform="matrix(0.768 0 0 1 3.0742 79.375)" class="st2 st3 st4">EAT</text>
	</g>
	<g>
		<text transform="matrix(0.768 0 0 1 76.1621 79.375)" class="st2 st3 st4">  EAT</text>
	</g>
	<g>
		<text transform="matrix(0.768 0 0 1 44.0972 81.1484)" class="st2 st3 st5">&amp;</text>
	</g>
</g>
</svg>
